<svg xmlns="http://www.w3.org/2000/svg" version="1.1" xmlns:xlink="http://www.w3.org/1999/xlink" xmlns:svgjs="http://svgjs.dev/svgjs" width="2000" height="1500" viewBox="0 0 2000 1500"><rect width="2000" height="1500" fill="#282634"></rect><g transform="matrix(0.75,0,0,0.75,249.090909090909,570.443041607837)"><svg viewBox="0 0 396 95" data-background-color="#282634" preserveAspectRatio="xMidYMid meet" height="479" width="2000" xmlns="http://www.w3.org/2000/svg" xmlns:xlink="http://www.w3.org/1999/xlink"><g id="tight-bounds" transform="matrix(1,0,0,1,0.2400000000000091,-0.017992909518483202)"><svg viewBox="0 0 395.52 95.0359827979243" height="95.0359827979243" width="395.52"><g><svg viewBox="0 0 544.3677283385309 130.80127949566585" height="95.0359827979243" width="395.52"><g transform="matrix(1,0,0,1,148.84772833853094,18.07745613869188)"><svg viewBox="0 0 395.5199999999999 94.6463672182821" height="94.6463672182821" width="395.5199999999999"><g id="textblocktransform"><svg viewBox="0 0 395.5199999999999 94.6463672182821" height="94.6463672182821" width="395.5199999999999" id="textblock"><g><svg viewBox="0 0 395.5199999999999 94.6463672182821" height="94.6463672182821" width="395.5199999999999"><g transform="matrix(1,0,0,1,0,0)"><svg width="395.5199999999999" viewBox="1.9000000953674316 -45.150001525878906 190.3300018310547 45.55000305175781" height="94.6463672182821" data-palette-color="#ff4057"><path d="M1.9 0L1.9-42.95 13.75-42.95Q18.35-42.95 20.65-40.4 22.95-37.85 23-32.85L23-32.85 23.1-12.75Q23.15-6.4 20.9-3.2 18.65 0 13.45 0L13.45 0 1.9 0ZM10.55-7.6L12.05-7.6Q14.4-7.6 14.4-9.9L14.4-9.9 14.4-32.05Q14.4-33.5 14.18-34.23 13.95-34.95 13.35-35.2 12.75-35.45 11.5-35.45L11.5-35.45 10.55-35.45 10.55-7.6ZM36.75 0.4Q30.9 0.4 28.3-2.5 25.7-5.4 25.7-11.85L25.7-11.85 25.7-16.05 34.15-16.05 34.15-10.7Q34.15-7.5 36.2-7.5L36.2-7.5Q37.35-7.5 37.8-8.18 38.25-8.85 38.25-10.45L38.25-10.45Q38.25-12.55 37.75-13.93 37.25-15.3 36.47-16.23 35.7-17.15 33.7-19.1L33.7-19.1 30-22.8Q25.7-27 25.7-32.1L25.7-32.1Q25.7-37.6 28.22-40.48 30.75-43.35 35.6-43.35L35.6-43.35Q41.4-43.35 43.95-40.28 46.5-37.2 46.5-30.65L46.5-30.65 37.75-30.65 37.7-33.6Q37.7-34.45 37.22-34.95 36.75-35.45 35.9-35.45L35.9-35.45Q34.9-35.45 34.4-34.9 33.9-34.35 33.9-33.4L33.9-33.4Q33.9-31.3 36.3-29.05L36.3-29.05 41.3-24.25Q43.05-22.55 44.2-21.03 45.35-19.5 46.05-17.43 46.75-15.35 46.75-12.5L46.75-12.5Q46.75-6.15 44.42-2.88 42.1 0.4 36.75 0.4L36.75 0.4ZM57.35 0L49.6 0 49.6-42.95 62.7-42.95 66.3-16.75 69.9-42.95 83.09-42.95 83.09 0 75.25 0 75.25-30.95 70.3 0 62.6 0 57.35-30.95 57.35 0ZM97.39 0.4Q86.44 0.4 86.44-10.95L86.44-10.95 86.44-25.65Q86.44-30.85 89.37-33.93 92.29-37 97.39-37L97.39-37Q102.49-37 105.42-33.93 108.34-30.85 108.34-25.65L108.34-25.65 108.34-10.95Q108.34 0.4 97.39 0.4L97.39 0.4ZM97.39-6.35Q98.44-6.35 98.94-7.1 99.44-7.85 99.44-9.15L99.44-9.15 99.44-27.05Q99.44-30.25 97.39-30.25L97.39-30.25Q95.34-30.25 95.34-27.05L95.34-27.05 95.34-9.15Q95.34-7.85 95.84-7.1 96.34-6.35 97.39-6.35L97.39-6.35ZM126.39 0L116.24 0 110.39-36.6 119.14-36.6 120.94-18.1 121.24-12.15 121.59-18.15 123.59-36.6 132.34-36.6 126.39 0ZM143.34-39.05L134.59-39.05 134.59-45.15 143.34-45.15 143.34-39.05ZM143.34 0L134.59 0 134.59-36.6 143.34-36.6 143.34 0ZM157.04 0.4Q151.39 0.4 148.94-2.7 146.49-5.8 146.49-11.95L146.49-11.95 146.49-26.65Q146.49-31.7 149.39-34.35 152.29-37 157.49-37L157.49-37Q168.04-37 168.04-26.65L168.04-26.65 168.04-24Q168.04-20 167.94-17.5L167.94-17.5 155.24-17.5 155.24-10.4Q155.24-8.5 155.64-7.43 156.04-6.35 157.34-6.35L157.34-6.35Q158.34-6.35 158.76-6.95 159.19-7.55 159.26-8.33 159.34-9.1 159.34-10.6L159.34-10.6 159.34-14.15 168.04-14.15 168.04-12.05Q168.04-5.65 165.56-2.63 163.09 0.4 157.04 0.4L157.04 0.4ZM155.19-21.85L159.34-21.85 159.34-26.55Q159.34-30.5 157.39-30.5L157.39-30.5Q155.19-30.5 155.19-26.55L155.19-26.55 155.19-21.85ZM181.23 0.4Q170.38 0.4 170.38-10.6L170.38-10.6 170.43-13.5 179.18-13.5 179.23-9.2Q179.23-7.9 179.73-7.23 180.23-6.55 181.38-6.55L181.38-6.55Q183.13-6.55 183.13-9.4L183.13-9.4Q183.13-11.5 182.31-12.7 181.48-13.9 179.68-15.25L179.68-15.25 175.03-18.85Q172.63-20.7 171.58-22.68 170.53-24.65 170.53-28.25L170.53-28.25Q170.53-31.05 172.01-33.02 173.48-35 175.93-36 178.38-37 181.38-37L181.38-37Q192.03-37 192.03-26.4L192.03-26.4 192.03-25.7 182.98-25.7 182.98-27.1Q182.98-28.4 182.56-29.33 182.13-30.25 181.13-30.25L181.13-30.25Q180.23-30.25 179.76-29.73 179.28-29.2 179.28-28.3L179.28-28.3Q179.28-26.3 180.83-25.2L180.83-25.2 186.23-21.25Q189.13-19.1 190.68-16.57 192.23-14.05 192.23-10.2L192.23-10.2Q192.23-5.1 189.33-2.35 186.43 0.4 181.23 0.4L181.23 0.4Z" opacity="1" transform="matrix(1,0,0,1,0,0)" fill="#ff4057" class="undefined-text-0" data-fill-palette-color="primary" id="text-0"></path></svg></g></svg></g></svg></g></svg></g><g><svg viewBox="0 0 126.50399255110779 130.80127949566585" height="130.80127949566585" width="126.50399255110779"><g><svg xmlns="http://www.w3.org/2000/svg" xmlns:xlink="http://www.w3.org/1999/xlink" version="1.1" x="0" y="0" viewBox="7.487322807312012 6.065999984741211 84.02568054199219 86.87999725341797" enable-background="new 0 0 100 100" xml:space="preserve" height="130.80127949566585" width="126.50399255110779" class="icon-icon-0" data-fill-palette-color="accent" id="icon-0"><rect x="34.571" y="16.321" fill="#d14e4e" width="5.716" height="5.716" data-fill-palette-color="accent"></rect><rect x="34.571" y="28.368" fill="#d14e4e" width="5.716" height="5.716" data-fill-palette-color="accent"></rect><rect x="34.571" y="40.416" fill="#d14e4e" width="5.716" height="5.716" data-fill-palette-color="accent"></rect><rect x="34.571" y="52.464" fill="#d14e4e" width="5.716" height="5.716" data-fill-palette-color="accent"></rect><rect x="80.349" y="16.321" fill="#d14e4e" width="5.716" height="5.716" data-fill-palette-color="accent"></rect><rect x="80.349" y="28.368" fill="#d14e4e" width="5.716" height="5.716" data-fill-palette-color="accent"></rect><rect x="80.349" y="40.416" fill="#d14e4e" width="5.716" height="5.716" data-fill-palette-color="accent"></rect><rect x="80.349" y="52.464" fill="#d14e4e" width="5.716" height="5.716" data-fill-palette-color="accent"></rect><path fill="#d14e4e" d="M52.324 50.356c-0.188 0-0.375-0.048-0.546-0.142-0.354-0.199-0.572-0.572-0.572-0.975V26.271c0-0.404 0.218-0.777 0.572-0.975 0.354-0.194 0.786-0.19 1.13 0.024l18.704 11.483c0.332 0.203 0.532 0.563 0.532 0.951 0 0.389-0.201 0.749-0.532 0.951L52.909 50.19C52.73 50.301 52.527 50.356 52.324 50.356zM53.442 28.268v18.974l15.45-9.488L53.442 28.268z" data-fill-palette-color="accent"></path><path fill="#d14e4e" d="M81.978 8.301c4.025 0 7.3 3.275 7.3 7.3V59.3c0 4.025-3.275 7.3-7.3 7.3H38.279c-4.025 0-7.3-3.275-7.3-7.3V15.601c0-4.025 3.275-7.3 7.3-7.3H81.978M81.978 6.066H38.279c-5.266 0-9.535 4.269-9.535 9.535V59.3c0 5.266 4.269 9.535 9.535 9.535h43.699c5.266 0 9.535-4.269 9.535-9.535V15.601C91.512 10.335 87.243 6.066 81.978 6.066L81.978 6.066z" data-fill-palette-color="accent"></path><path fill="#d14e4e" d="M74.63 71.069h-2.299l0.225 0.924c0.478 1.957 0.164 3.985-0.884 5.706-1.048 1.722-2.704 2.931-4.661 3.409l-38.573 9.386c-1.953 0.474-3.98 0.164-5.706-0.886-1.722-1.047-2.931-2.704-3.409-4.661l-9.383-38.57c-0.478-1.957-0.161-3.985 0.886-5.706 1.047-1.722 2.704-2.931 4.661-3.409l11.023-2.682V32.28l-11.551 2.809c-2.538 0.618-4.683 2.187-6.043 4.419-1.357 2.23-1.765 4.858-1.148 7.396l9.386 38.57c0.615 2.538 2.184 4.683 4.417 6.043 1.552 0.943 3.293 1.429 5.065 1.429 0.775 0 1.558-0.094 2.331-0.284l38.573-9.386c2.538-0.615 4.683-2.184 6.04-4.417 1.36-2.23 1.765-4.858 1.148-7.396L74.63 71.069z" data-fill-palette-color="accent"></path></svg></g></svg></g></svg></g><defs></defs></svg><rect width="395.52" height="95.0359827979243" fill="none" stroke="none" visibility="hidden"></rect></g></svg></g></svg>